<svg viewBox="0 -24 123 123" xmlns="http://www.w3.org/2000/svg" style="background-color: white; border-radius: .4em;">
<g clip-path="url(#clip0_2808_19345)">
    <path d="M21.0475 0.874878V34.1827H15.4962V5.66801H6.0513V34.1827H0.5V0.874878H21.0475Z" fill="#86BBFF"/>
    <path d="M31.0714 32.866C29.4084 31.3387 28.1989 29.3822 27.5761 27.2119C26.6646 24.166 26.2311 20.9972 26.2911 17.8184C26.2323 14.551 26.6655 11.2934 27.5761 8.15501C28.1877 5.91327 29.3956 3.87931 31.0714 2.26961C32.5366 1.01289 34.4032 0.322052 36.3336 0.322052C38.2639 0.322052 40.1305 1.01289 41.5957 2.26961C43.2805 3.86487 44.4865 5.89869 45.0782 8.14216C45.9901 11.2847 46.4233 14.5467 46.3632 17.8184C46.4229 21.0014 45.9894 24.1744 45.0782 27.2247C44.4713 29.396 43.2696 31.3544 41.6086 32.8788C40.1144 34.0836 38.2529 34.7405 36.3336 34.7405C34.4142 34.7405 32.5527 34.0836 31.0586 32.8788L31.0714 32.866ZM32.4335 24.4362C32.6507 25.8887 33.186 27.2753 34.0013 28.4969C34.258 28.8815 34.6031 29.1989 35.0078 29.4224C35.4125 29.646 35.865 29.7693 36.3272 29.7819C37.7021 29.7819 38.7815 28.7796 39.5783 26.775C40.5002 23.8699 40.9005 20.8245 40.7605 17.7798C40.7958 15.4636 40.6152 13.1491 40.2208 10.8664C40.0135 9.36551 39.483 7.92748 38.6659 6.65153C38.4366 6.23343 38.0991 5.88464 37.6888 5.64169C37.2785 5.39874 36.8104 5.27056 36.3336 5.27056C35.8567 5.27056 35.3886 5.39874 34.9783 5.64169C34.568 5.88464 34.2305 6.23343 34.0013 6.65153C33.194 7.92885 32.6602 9.35961 32.4335 10.8536C32.0344 13.1315 31.8495 15.4417 31.881 17.7541C31.8458 19.9942 32.0309 22.2323 32.4335 24.4362Z" fill="#86BBFF"/>
    <path d="M64.6979 0.874878V13.648H61.7552C60.6886 13.7065 59.6232 13.5128 58.6455 13.0826C57.8738 12.673 57.2827 11.9903 56.9878 11.1679C56.5952 10.0238 56.4166 8.81718 56.4609 7.6084V0.874878H50.9096V7.5827C50.7482 10.4762 51.6128 13.3339 53.3512 15.6526C54.264 16.6665 55.3955 17.4595 56.66 17.9716C57.9246 18.4836 59.289 18.7013 60.6501 18.6082H64.6979V34.1827H70.2492V0.874878H64.6979Z" fill="#86BBFF"/>
    <path d="M94.5975 5.66801H88.0825V34.1827H82.5312V5.66801H76.0161V0.874878H94.5975V5.66801Z" fill="#86BBFF"/>
    <path d="M105.781 0.869298H110.227C112.059 0.770323 113.88 1.21756 115.457 2.15432C116.834 3.07437 117.904 4.38577 118.529 5.91944C119.293 7.82215 119.773 9.82675 119.955 11.8691L122.525 34.1128H116.974L115.175 18.5769H105.755V34.1771H100.204V0.869298H105.781ZM105.781 13.848H114.648L114.417 11.9333C114.314 10.703 114.059 9.49016 113.658 8.32243C113.377 7.5367 112.826 6.87635 112.103 6.45914C111.171 6.01229 110.141 5.80892 109.109 5.86803H105.781V13.848Z" fill="#86BBFF"/>
    <path d="M6.61671 40.8142C8.46758 40.7652 10.2944 41.242 11.8853 42.1892C13.4451 43.182 14.6611 44.6313 15.3677 46.3398C16.2704 48.5169 16.7081 50.8586 16.6527 53.2147C16.7099 55.4433 16.312 57.6601 15.4834 59.7297C14.8695 61.3195 13.8771 62.7354 12.5921 63.8547C11.7232 64.6733 10.5964 65.164 9.4052 65.2425C8.78821 65.2857 8.16924 65.1931 7.59196 64.971C7.01468 64.749 6.49314 64.403 6.06415 63.9575V74.122H0.5V40.8142H6.61671ZM6.37255 58.0592C6.50944 58.6545 6.79204 59.2064 7.19496 59.6655C7.32623 59.827 7.49039 59.9586 7.67652 60.0517C7.86264 60.1447 8.06645 60.1971 8.27438 60.2052C8.76215 60.1781 9.22145 59.9669 9.55941 59.6141C10.0784 59.0747 10.4501 58.4109 10.6388 57.6866C10.951 56.5793 11.094 55.4312 11.0629 54.2812C11.0629 51.1715 10.6902 48.9741 9.91921 47.6891C9.60357 47.0953 9.12837 46.6014 8.54715 46.2631C7.96593 45.9248 7.30179 45.7556 6.62956 45.7744H6.06415V55.4892C6.04702 56.356 6.15082 57.221 6.37255 58.0592Z" fill="#86BBFF"/>
    <path d="M22.7818 72.7891C21.1115 71.2626 19.9009 69.2999 19.2865 67.1221C18.3741 64.0764 17.9406 60.9075 18.0015 57.7286C17.9426 54.4655 18.3758 51.2121 19.2865 48.0781C19.8929 45.8379 21.1018 43.8068 22.7818 42.2055C24.247 40.9488 26.1136 40.258 28.0439 40.258C29.9743 40.258 31.8409 40.9488 33.3061 42.2055C34.9835 43.8015 36.1884 45.829 36.7885 48.0653C37.6994 51.208 38.1326 54.4699 38.0735 57.7415C38.156 60.9212 37.7441 64.0945 36.8528 67.1478C36.2491 69.3205 35.0469 71.2797 33.3832 72.8019C31.8931 74.0157 30.03 74.6784 28.1082 74.6784C26.1863 74.6784 24.3233 74.0157 22.8332 72.8019L22.7818 72.7891ZM24.1567 64.3722C24.3821 65.7886 24.9126 67.139 25.7116 68.3301C25.9658 68.7112 26.3069 69.0264 26.7068 69.2498C27.1067 69.4732 27.554 69.5984 28.0118 69.6151C29.3825 69.6151 30.4619 68.6128 31.2501 66.6081C32.1847 63.7057 32.5895 60.6588 32.4451 57.613C32.4801 55.2967 32.2994 52.9823 31.9054 50.6995C31.6922 49.2082 31.162 47.7797 30.3505 46.5104C30.1213 46.0923 29.7838 45.7435 29.3735 45.5005C28.9632 45.2576 28.4951 45.1294 28.0182 45.1294C27.5414 45.1294 27.0733 45.2576 26.663 45.5005C26.2527 45.7435 25.9152 46.0923 25.6859 46.5104C24.8771 47.8255 24.3559 49.297 24.1567 50.828C23.7588 53.1061 23.5738 55.4163 23.6042 57.7286C23.5719 59.9558 23.7569 62.1809 24.1567 64.3722Z" fill="#86BBFF"/>
    <path d="M41.8665 48.3355C43.2214 45.8258 45.3543 43.8236 47.9446 42.63C50.9772 41.3133 54.2654 40.6899 57.5695 40.8053V45.804C53.6116 45.804 50.5918 46.7935 48.4972 48.7981C46.4026 50.8028 45.3489 53.7712 45.3489 57.7933C45.3489 61.8154 46.3898 64.4754 48.4844 66.3515C50.5789 68.2277 53.6244 69.1786 57.5695 69.1786V74.1131C51.8897 74.1131 47.5077 72.7424 44.4237 70.001C41.3396 67.2596 39.7976 63.169 39.7976 57.729C39.6755 54.4727 40.3877 51.2393 41.8665 48.3355Z" fill="#86BBFF"/>
    <path d="M60.5495 48.3442C61.9054 45.8306 64.0438 43.8276 66.6405 42.6387C69.6527 41.3101 72.923 40.6692 76.2139 40.7625V45.7613C72.2689 45.7613 69.2491 46.7507 67.1416 48.7554C65.0342 50.76 63.9933 53.7798 63.9933 57.7377C63.9933 61.6955 65.0342 64.4198 67.1288 66.2959C69.2234 68.1721 72.2689 69.123 76.2011 69.123V74.1217C70.5213 74.1217 66.1393 72.751 63.0553 70.0096C59.9712 67.2683 58.4292 63.1776 58.4292 57.7377C58.323 54.4769 59.0529 51.2432 60.5495 48.3442Z" fill="#86BBFF"/>
    <path d="M84.3729 40.8127V52.6992L93.8049 44.7449L99.3562 40.0674V74.1205H93.8049V51.4527L84.3729 59.407V74.1205H78.8087V40.8127H84.3729Z" fill="#86BBFF"/>
    <path d="M107.519 40.806V52.6925L116.951 44.7382L122.476 40.0864V74.1138H116.925V51.446L107.493 59.4003V74.1138H101.967V40.806H107.519Z" fill="#86BBFF"/>
</g>
<defs>
    <clipPath id="clip0_2808_19345">
        <rect width="122" height="74.3514" fill="white" transform="translate(0.5 0.32431)"/>
    </clipPath>
</defs>
</svg>
